<svg width="88" height="85" viewBox="0 0 88 85" fill="none" xmlns="http://www.w3.org/2000/svg">
<path d="M6.66 78.56C6.57 78.56 6.48 78.54 6.39 78.5C2.51 76.83 0 73.02 0 68.79V10.54C0 4.73 4.73 0 10.55 0H56.66C60.89 0 64.7 2.51 66.37 6.39C66.52 6.73 66.36 7.13 66.02 7.28C65.68 7.43 65.28 7.27 65.13 6.93C63.67 3.55 60.35 1.36 56.67 1.36H10.55C5.48 1.36 1.35 5.48 1.35 10.54V68.8C1.35 72.48 3.54 75.81 6.92 77.26C7.26 77.41 7.42 77.81 7.27 78.15C7.17 78.41 6.92 78.56 6.66 78.56Z" fill="#6F5338"/>
<path d="M61.8401 84.53H15.7301C9.91005 84.53 5.18005 79.8 5.18005 73.98V15.72C5.18005 9.90999 9.91005 5.17999 15.7301 5.17999H61.8401C67.6601 5.17999 72.3901 9.90999 72.3901 15.72V49.98C72.3901 50.35 72.0901 50.66 71.7101 50.66C71.3401 50.66 71.0301 50.36 71.0301 49.98V15.72C71.0301 10.66 66.9001 6.53999 61.8301 6.53999H15.7301C10.6601 6.53999 6.53005 10.66 6.53005 15.72V73.98C6.53005 79.05 10.6601 83.17 15.7301 83.17H61.8401C62.9601 83.17 64.0601 82.97 65.0901 82.57C65.4401 82.43 65.8301 82.61 65.9701 82.96C66.1101 83.31 65.9301 83.7 65.5801 83.84C64.3901 84.3 63.1301 84.53 61.8401 84.53Z" fill="#6F5338"/>
<path d="M61.8399 35.53H15.7299C14.1899 35.53 12.9399 34.28 12.9399 32.74V15.72C12.9399 14.19 14.1899 12.95 15.7299 12.95H61.8399C63.3799 12.95 64.6299 14.19 64.6299 15.72V32.75C64.6299 34.28 63.3799 35.53 61.8399 35.53ZM15.7299 14.3C14.9399 14.3 14.2999 14.94 14.2999 15.72V32.75C14.2999 33.54 14.9399 34.18 15.7299 34.18H61.8399C62.6299 34.18 63.2699 33.54 63.2699 32.75V15.72C63.2699 14.94 62.6299 14.3 61.8399 14.3H15.7299Z" fill="#6F5338"/>
<path d="M19.8399 49.65H17.3699C14.9299 49.65 12.9399 47.66 12.9399 45.22C12.9399 42.76 14.9299 40.77 17.3699 40.77H19.8399C22.2799 40.77 24.2699 42.76 24.2699 45.2V45.21C24.2699 47.66 22.2799 49.65 19.8399 49.65ZM17.3699 42.13C15.6699 42.13 14.2899 43.51 14.2899 45.21C14.2899 46.92 15.6699 48.3 17.3699 48.3H19.8399C21.5399 48.3 22.9199 46.92 22.9199 45.22V45.21C22.9199 43.51 21.5399 42.13 19.8399 42.13H17.3699Z" fill="#6F5338"/>
<path d="M33.2899 49.65H30.8199C28.3799 49.65 26.3899 47.66 26.3899 45.22C26.3899 42.76 28.3799 40.77 30.8199 40.77H33.2899C35.7299 40.77 37.7199 42.76 37.7199 45.2V45.21C37.7299 47.66 35.7399 49.65 33.2899 49.65ZM30.8199 42.13C29.1199 42.13 27.7399 43.51 27.7399 45.21C27.7399 46.92 29.1199 48.3 30.8199 48.3H33.2899C34.9899 48.3 36.3699 46.92 36.3699 45.22V45.21C36.3699 43.51 34.9899 42.13 33.2899 42.13H30.8199Z" fill="#6F5338"/>
<path d="M46.74 49.65H44.27C41.83 49.65 39.84 47.66 39.84 45.22C39.84 42.76 41.83 40.77 44.27 40.77H46.74C49.18 40.77 51.17 42.76 51.17 45.2V45.21C51.18 47.66 49.19 49.65 46.74 49.65ZM44.28 42.13C42.58 42.13 41.2 43.51 41.2 45.21C41.2 46.92 42.58 48.3 44.28 48.3H46.75C48.45 48.3 49.83 46.92 49.83 45.22V45.21C49.83 43.51 48.45 42.13 46.75 42.13H44.28Z" fill="#6F5338"/>
<path d="M60.1899 49.65H57.7299C55.2899 49.65 53.2999 47.66 53.2999 45.22C53.2999 42.76 55.2899 40.77 57.7299 40.77H60.1999C62.6399 40.77 64.6299 42.76 64.6299 45.2V45.21C64.6299 47.66 62.6399 49.65 60.1899 49.65ZM57.7299 42.13C56.0299 42.13 54.6499 43.51 54.6499 45.21C54.6499 46.92 56.0299 48.3 57.7299 48.3H60.1999C61.8999 48.3 63.2799 46.92 63.2799 45.22V45.21C63.2799 43.51 61.8999 42.13 60.1999 42.13H57.7299Z" fill="#6F5338"/>
<path d="M19.8399 63.21H17.3699C14.9299 63.21 12.9399 61.22 12.9399 58.78C12.9399 56.32 14.9299 54.33 17.3699 54.33H19.8399C22.2799 54.33 24.2699 56.32 24.2699 58.76V58.77C24.2699 61.22 22.2799 63.21 19.8399 63.21ZM17.3699 55.69C15.6699 55.69 14.2899 57.07 14.2899 58.77C14.2899 60.48 15.6699 61.86 17.3699 61.86H19.8399C21.5399 61.86 22.9199 60.48 22.9199 58.78V58.77C22.9199 57.07 21.5399 55.69 19.8399 55.69H17.3699Z" fill="#6F5338"/>
<path d="M33.2899 63.21H30.8199C28.3799 63.21 26.3899 61.22 26.3899 58.78C26.3899 56.32 28.3799 54.33 30.8199 54.33H33.2899C35.7299 54.33 37.7199 56.32 37.7199 58.76V58.77C37.7299 61.22 35.7399 63.21 33.2899 63.21ZM30.8199 55.69C29.1199 55.69 27.7399 57.07 27.7399 58.77C27.7399 60.48 29.1199 61.86 30.8199 61.86H33.2899C34.9899 61.86 36.3699 60.48 36.3699 58.78V58.77C36.3699 57.07 34.9899 55.69 33.2899 55.69H30.8199Z" fill="#6F5338"/>
<path d="M46.74 63.21H44.27C41.83 63.21 39.84 61.22 39.84 58.78C39.84 56.32 41.83 54.33 44.27 54.33H46.74C49.18 54.33 51.17 56.32 51.17 58.76V58.77C51.18 61.22 49.19 63.21 46.74 63.21ZM44.28 55.69C42.58 55.69 41.2 57.07 41.2 58.77C41.2 60.48 42.58 61.86 44.28 61.86H46.75C48.45 61.86 49.83 60.48 49.83 58.78V58.77C49.83 57.07 48.45 55.69 46.75 55.69H44.28Z" fill="#6F5338"/>
<path d="M19.8399 76.77H17.3699C14.9299 76.77 12.9399 74.78 12.9399 72.34C12.9399 69.88 14.9299 67.89 17.3699 67.89H19.8399C22.2799 67.89 24.2699 69.88 24.2699 72.32V72.33C24.2699 74.78 22.2799 76.77 19.8399 76.77ZM17.3699 69.24C15.6699 69.24 14.2899 70.62 14.2899 72.32C14.2899 74.03 15.6699 75.41 17.3699 75.41H19.8399C21.5399 75.41 22.9199 74.03 22.9199 72.33V72.32C22.9199 70.62 21.5399 69.24 19.8399 69.24H17.3699Z" fill="#6F5338"/>
<path d="M33.2899 76.77H30.8199C28.3799 76.77 26.3899 74.78 26.3899 72.34C26.3899 69.88 28.3799 67.89 30.8199 67.89H33.2899C35.7299 67.89 37.7199 69.88 37.7199 72.32V72.33C37.7299 74.78 35.7399 76.77 33.2899 76.77ZM30.8199 69.24C29.1199 69.24 27.7399 70.62 27.7399 72.32C27.7399 74.03 29.1199 75.41 30.8199 75.41H33.2899C34.9899 75.41 36.3699 74.03 36.3699 72.33V72.32C36.3699 70.62 34.9899 69.24 33.2899 69.24H30.8199Z" fill="#6F5338"/>
<path d="M46.74 76.77H44.27C41.83 76.77 39.84 74.78 39.84 72.34C39.84 69.88 41.83 67.89 44.27 67.89H46.74C49.18 67.89 51.17 69.88 51.17 72.32V72.33C51.18 74.78 49.19 76.77 46.74 76.77ZM44.28 69.24C42.58 69.24 41.2 70.62 41.2 72.32C41.2 74.03 42.58 75.41 44.28 75.41H46.75C48.45 75.41 49.83 74.03 49.83 72.33V72.32C49.83 70.62 48.45 69.24 46.75 69.24H44.28Z" fill="#6F5338"/>
<path d="M17.1 23.58C16.94 23.58 16.77 23.52 16.64 23.4C16.36 23.15 16.34 22.72 16.6 22.44L21.24 17.37C21.49 17.09 21.92 17.07 22.2 17.33C22.48 17.58 22.5 18.01 22.24 18.29L17.6 23.36C17.46 23.51 17.28 23.58 17.1 23.58Z" fill="#6F5338"/>
<path d="M20.53 24.92C20.37 24.92 20.21 24.86 20.08 24.75C19.8 24.5 19.78 24.07 20.03 23.79L22.43 21.12C22.68 20.84 23.11 20.82 23.39 21.07C23.67 21.32 23.69 21.75 23.44 22.03L21.04 24.7C20.9 24.84 20.72 24.92 20.53 24.92Z" fill="#6F5338"/>
<path d="M70 84.53C60.26 84.53 52.34 76.61 52.34 66.87C52.34 57.13 60.26 49.21 70 49.21C79.74 49.21 87.66 57.13 87.66 66.87C87.66 76.61 79.74 84.53 70 84.53ZM70 50.57C61.01 50.57 53.7 57.88 53.7 66.87C53.7 75.86 61.01 83.17 70 83.17C78.99 83.17 86.3 75.86 86.3 66.87C86.3 57.88 78.99 50.57 70 50.57Z" fill="#6F5338"/>
<path d="M70 78.73C63.46 78.73 58.14 73.41 58.14 66.87C58.14 60.33 63.46 55.01 70 55.01C76.54 55.01 81.86 60.33 81.86 66.87C81.87 73.41 76.54 78.73 70 78.73ZM70 56.37C64.21 56.37 59.5 61.08 59.5 66.87C59.5 72.66 64.21 77.37 70 77.37C75.79 77.37 80.5 72.66 80.5 66.87C80.51 61.08 75.8 56.37 70 56.37Z" fill="#6F5338"/>
<path d="M67.07 61.52C67.68 60.86 68.53 60.52 69.62 60.51V59.42H70.4V60.49C71.48 60.57 72.32 60.89 72.9 61.45C73.48 62.01 73.78 62.76 73.81 63.68H72.38C72.34 63.27 72.23 62.91 72.05 62.61C71.71 62.06 71.16 61.77 70.41 61.74V65.71C71.67 66.06 72.53 66.4 72.98 66.71C73.72 67.22 74.08 67.98 74.08 68.98C74.08 70.43 73.61 71.46 72.67 72.07C72.15 72.41 71.39 72.63 70.41 72.74V74.33H69.63V72.74C68.04 72.64 66.97 72.08 66.4 71.06C66.09 70.51 65.93 69.77 65.93 68.83H67.38C67.42 69.58 67.54 70.12 67.73 70.46C68.07 71.08 68.69 71.42 69.61 71.5V67.05C68.43 66.83 67.56 66.45 67 65.93C66.44 65.41 66.16 64.68 66.16 63.76C66.16 62.93 66.46 62.18 67.07 61.52ZM68.17 64.92C68.53 65.23 69.01 65.44 69.61 65.56V61.72C68.9 61.75 68.39 61.97 68.09 62.37C67.79 62.77 67.64 63.21 67.64 63.65C67.63 64.2 67.81 64.62 68.17 64.92ZM72.33 70.52C72.52 70.19 72.61 69.81 72.61 69.38C72.61 68.7 72.36 68.18 71.86 67.83C71.57 67.62 71.09 67.43 70.41 67.24V71.54C71.33 71.5 71.98 71.16 72.33 70.52Z" fill="#6F5338"/>
</svg>
